<svg width="141" height="42" viewBox="0 0 141 42" fill="none" xmlns="http://www.w3.org/2000/svg">
<path d="M23.6617 22.8624H29.7162L24.5921 17.7966H18.3145V23.8286L23.6617 29.1581V22.8624Z" fill="#EE7913"/>
<path d="M85.364 20.3673V35.6633C81.1563 38.734 74.7308 40.8377 69.2153 40.8377C57.1606 40.8377 48.0059 32.0815 48.0059 20.5382C48.0059 9.05199 57.3312 0.352295 69.7275 0.352295C75.6413 0.352295 81.6679 2.62685 85.7054 6.15209L80.6446 12.5778C77.6876 9.84844 73.5941 8.14239 69.7275 8.14239C62.6762 8.14239 57.2175 13.5442 57.2175 20.5382C57.2175 27.5889 62.7333 32.9913 69.7838 32.9913C72.172 32.9913 75.0154 32.1383 77.5742 30.8305V20.3676H85.364V20.3673Z" fill="#637179"/>
<path d="M93.2129 40.4393V0.636108H102.197V40.4393H93.2129Z" fill="#637179"/>
<path d="M140.69 4.55946L137.222 12.0082C133.014 9.50623 128.01 7.91415 124.826 7.91415C121.812 7.91415 119.765 8.99458 119.765 11.1554C119.765 18.4907 140.975 14.3967 140.918 28.7256C140.918 36.5157 134.151 40.7235 125.338 40.7235C118.798 40.7235 112.259 38.2215 107.768 34.4117L111.35 27.0767C115.444 30.7162 121.243 33.0473 125.451 33.0473C129.148 33.0473 131.365 31.6827 131.365 29.2376C131.365 21.732 110.156 26.1103 110.156 12.0085C110.156 4.78714 116.354 0.238037 125.565 0.238037C131.138 0.237756 136.71 1.94381 140.69 4.55946Z" fill="#637179"/>
<path d="M43.0794 36.0743L32.2771 25.395H26.1934V31.6823L36.5451 41.9996H43.0794V36.0743Z" fill="#637179"/>
<path d="M26.1931 25.3953H32.2768L29.7146 22.8624H23.6602V29.1581L26.1931 31.6826V25.3953Z" fill="#F0E64A"/>
<path d="M24.5197 33.2371C23.6025 33.4482 22.6487 33.5627 21.6648 33.5627C14.6275 33.5627 8.64256 27.7759 8.64256 20.2728C8.64256 12.7698 14.5617 7.11043 21.6648 7.11043C28.7679 7.11043 34.4239 12.7695 34.4239 20.2728C34.4239 21.4931 34.2719 22.6673 33.9908 23.7795L40.5043 30.2919C42.1836 27.3495 43.123 23.9284 43.123 20.2227C43.123 8.6586 33.8945 0 21.5331 0C9.22822 0 0 8.60175 0 20.2227C0 31.9006 9.2285 40.6734 21.5331 40.6734C24.7096 40.6734 27.6782 40.0892 30.3375 39.0259L24.5197 33.2371Z" fill="#637179"/>
<path d="M18.3145 17.7966L43.0807 42V36.0745L32.2784 25.3954L29.7164 22.8624L24.5923 17.7966H18.3145Z" fill="white" fill-opacity="0.172549"/>
</svg>
