<svg width="25" height="26" viewBox="0 0 25 26" fill="none" xmlns="http://www.w3.org/2000/svg">
<path d="M24.253 8.53596C24.253 2.89516 20.557 1.24282 20.557 1.24282C18.6941 0.387408 15.4947 0.0273005 12.1705 0H12.0886C8.76446 0.0273005 5.5677 0.387408 3.70346 1.24282C3.70346 1.24282 0.00749171 2.89646 0.00749171 8.53596C0.00749171 9.82689 -0.017209 11.3713 0.0230918 13.0093C0.156994 18.5254 1.03451 23.9621 6.13451 25.3115C8.48625 25.9342 10.5052 26.0642 12.1302 25.9745C15.0787 25.8107 16.7336 24.9228 16.7336 24.9228L16.6361 22.7829C16.6361 22.7829 14.5288 23.4473 12.1627 23.3667C9.81748 23.286 7.34353 23.1144 6.96392 20.2349C6.92808 19.9673 6.9107 19.6976 6.91192 19.4276C6.91192 19.4276 9.21297 19.9905 12.1302 20.1244C13.9139 20.2063 15.5857 20.0204 17.2848 19.8176C20.5427 19.4289 23.3793 17.4216 23.7355 15.5873C24.2998 12.6973 24.253 8.53596 24.253 8.53596ZM19.894 15.8031H17.1886V9.17428C17.1886 7.77675 16.601 7.06824 15.4245 7.06824C14.1245 7.06824 13.4732 7.90935 13.4732 9.57338V13.2018H10.7834V9.57338C10.7834 7.90935 10.1321 7.06824 8.83076 7.06824C7.65424 7.06824 7.06663 7.77805 7.06663 9.17428V15.8031H4.36128V8.97407C4.36128 7.57785 4.71618 6.46892 5.4312 5.64861C6.16701 4.82829 7.13033 4.40708 8.32765 4.40708C9.71218 4.40708 10.7613 4.93879 11.4542 6.00352L12.1276 7.13324L12.8023 6.00352C13.4953 4.93879 14.5444 4.40708 15.9289 4.40708C17.1249 4.40708 18.0895 4.82829 18.8254 5.64861C19.5391 6.46892 19.894 7.57785 19.894 8.97407V15.8031Z" fill="white"/>
</svg>
